<?xml version="1.0" encoding="iso-8859-1"?>
<!-- Uploaded to: SVG Repo, www.svgrepo.com, Generator: SVG Repo Mixer Tools -->
<svg fill="#000000" height="800px" width="800px" version="1.1" id="Layer_1" xmlns="http://www.w3.org/2000/svg" xmlns:xlink="http://www.w3.org/1999/xlink" 
	 viewBox="0 0 512.001 512.001" xml:space="preserve">
<g>
	<g>
		<path d="M419.875,253.199c-6.758-1.05-13.141-2.039-18.807-3.26c-5.521-1.195-17.886-6.443-44.723-23.45
			c3.925-9.318,2.133-20.489-5.444-28.066c-9.984-9.984-26.214-9.984-36.198,0l-0.034,0.034c-4.13-2.901-8.209-5.803-12.288-8.713
			c3.089-4.318,4.821-9.438,4.821-14.848c0-6.844-2.671-13.278-7.492-18.099c-9.677-9.668-26.539-9.668-36.207,0l-2.637,2.637
			c-12.595-9.421-23.262-17.544-30.114-22.81c-8.32-6.383-20.19-5.623-27.605,1.809l-17.527,17.519
			c-8.542,8.542-8.542,22.451,0,30.993l4.77,4.77c1.195,1.186,1.075,2.62,0.964,3.183c-0.145,0.742-0.572,1.741-1.758,2.253
			c-7.945,3.413-15.411,5.76-22.477,7.322l5.018,30.276l38.195,8.619c3.14,0.708,5.615,3.14,6.4,6.263
			c0.777,3.123-0.265,6.426-2.705,8.525l-28.126,24.286l5.683,37.521H161.46l-16.393-14.285l-16.393,14.285H98.552l5.683-37.521
			L76.11,258.157c-2.441-2.099-3.482-5.402-2.705-8.525c0.785-3.123,3.26-5.555,6.4-6.263L118,234.75l5.197-31.343
			c-30.592-9.31-45.517-34.517-46.455-36.156c-1.246-2.202-3.422-3.746-5.922-4.198c-3.14-0.572-7.97-0.435-13.201,3.328
			C31.113,185.436,12.613,301.369,8.892,326.475l-8.431,24.559c-0.64,1.86-0.614,3.908,0.077,5.76
			c2.022,5.367,13.559,22.904,77.457,22.904l374.801-0.017c20.523-1.28,59.298-13.628,59.204-51.174v-0.009v-0.017v-0.009v-0.008
			C511.975,267.526,456.551,258.908,419.875,253.199z M308.66,228.597l18.108-18.108c3.328-3.319,8.738-3.319,12.066,0
			c3.328,3.337,3.328,8.738,0,12.075l-0.41,0.41h-0.008l-17.681,17.69c-3.226,3.217-8.849,3.217-12.066,0
			c-1.613-1.604-2.5-3.755-2.5-6.033C306.168,232.343,307.047,230.202,308.66,228.597z M257.46,186.963l18.108-18.099
			c3.217-3.234,8.841-3.243,12.075,0.009c1.604,1.604,2.492,3.738,2.492,6.025c0,2.278-0.887,4.42-2.5,6.033l-4.13,4.13
			l-13.969,13.969c-0.836,0.836-1.792,1.459-2.825,1.877c-0.205,0.077-0.435,0.06-0.649,0.128c-2.321,0.725-4.804,0.393-6.929-0.896
			c-0.572-0.35-1.178-0.614-1.664-1.109C254.141,195.701,254.141,190.291,257.46,186.963z M452.267,362.63H77.995
			c-40.201,0-54.963-7.228-59.776-10.76l5.086-14.839h160.939h309.538C487.083,360.002,453.36,362.536,452.267,362.63z"/>
	</g>
</g>
</svg>